<svg viewBox="-2.24 -2.24 87.9 40.48" xmlns="http://www.w3.org/2000/svg">
<path fill="#343434" d="M73.44 6.39V.07H61.28v27.97h9.24V11.49h3.65v16.55h9.24V6.39h-9.97zM12.9 0v23.14H9.26V0H0v21.26a6.75 6.75 0 0 0 6.74 6.75h8.67a6.75 6.75 0 0 0 6.75-6.75V0z"/><path d="M74.61 34.82a1 1 0 0 1-.88 1.17h-5a1 1 0 0 1-1.16-.88.71.71 0 0 1 0-.29v-4.08a1 1 0 0 1 .86-1.16.76.76 0 0 1 .3 0h4.66a1 1 0 0 1 1.17.86 1.5 1.5 0 0 1 0 .3zm-5.24-3.49v2.91h3.49v-2.92zM78.47 31.32H77v4.67h-1.72v-5.25a1 1 0 0 1 .86-1.16.76.76 0 0 1 .3 0h5.8a1 1 0 0 1 1.16.86.76.76 0 0 1 0 .3v5.25h-1.74v-4.67h-1.43v4.67h-1.74z" fill="#e94127"/><path d="M59.38 5.91h-14.5a6.74 6.74 0 0 0-6.76 6.74v8.69a6.75 6.75 0 0 0 6.74 6.75H59.4zm-8.8 17.28H47v-11.9h3.64z" fill="#343434"/><path d="M36.24 23.09h-3V11.33h2.88a8.87 8.87 0 0 1 2.52-4.95h-5.4V0h-9.19v25.85a2.19 2.19 0 0 0 2.19 2.18h13a8.8 8.8 0 0 1-3-4.94z" fill="#343434"/><path fill="#e94127" d="M59.82 34.24h1.75v1.75h-1.75z"/><path d="M67 34.23h-4v-2.91h4v-.58a1.92 1.92 0 0 1 .33-1.16h-4.9a1 1 0 0 0-1.17.87 1.4 1.4 0 0 0 0 .29v2.91h.87v2.31h5.15a2 2 0 0 1-.28-1.14z" fill="#e94127"/>
</svg>