<svg id="Layer_1" data-name="Layer 1" xmlns="http://www.w3.org/2000/svg" viewBox="0 0 448 448"><defs><style>.cls-1{fill:#dfbda0;}</style></defs><path class="cls-1" d="M448,48V400a48,48,0,0,1-48,48H154.4c9.8-16.4,22.4-40,27.4-59.3,3-11.5,15.3-58.4,15.3-58.4,8,15.3,31.4,28.2,56.3,28.2,74.1,0,127.4-68.1,127.4-152.7C380.8,124.7,314.6,64,229.4,64c-106,0-162.2,71.1-162.2,148.6,0,36,19.2,80.8,49.8,95.1,4.7,2.2,7.1,1.2,8.2-3.3.8-3.4,5-20.1,6.8-27.8a7.24,7.24,0,0,0-1.7-7c-10.1-12.3-18.3-34.9-18.3-56C112,159.4,153,107,222.9,107c60.3,0,102.6,41.1,102.6,99.9,0,66.4-33.5,112.4-77.2,112.4-24.1,0-42.1-19.9-36.4-44.4,6.9-29.2,20.3-60.7,20.3-81.8,0-53-75.5-45.7-75.5,25,0,21.7,7.3,36.5,7.3,36.5-31.4,132.8-36.1,134.5-29.6,192.6l2.2.8H48A48,48,0,0,1,0,400V48A48,48,0,0,1,48,0H400A48,48,0,0,1,448,48Z"/></svg>