<svg id="Layer_1" data-name="Layer 1" xmlns="http://www.w3.org/2000/svg" viewBox="0 0 448 448"><defs><style>.cls-1{fill:#dfbda0;}</style></defs><path class="cls-1" d="M384,0H64A64,64,0,0,0,0,64V384a64,64,0,0,0,64,64H384a64,64,0,0,0,64-64V64A64,64,0,0,0,384,0Zm-3.91,319.31-.08.1a32.1,32.1,0,0,1-8.72,6.82,90.33,90.33,0,0,1-20.58,8.2,12.74,12.74,0,0,0-3.86,1.76c-2.15,1.91-2.1,4.64-4.4,8.55a23,23,0,0,1-6.84,7.47c-6.7,4.64-14.24,4.93-22.23,5.23-7.21.28-15.39.58-24.72,3.67-3.77,1.25-7.76,3.7-12.38,6.54C265,374.55,249.6,384,224,384s-40.93-9.4-52.11-16.28c-4.65-2.89-8.67-5.36-12.54-6.64-9.34-3.08-17.52-3.4-24.73-3.67-8-.31-15.52-.6-22.23-5.23a23,23,0,0,1-6-6.11c-3.2-4.63-2.86-7.8-5.25-9.89a13.52,13.52,0,0,0-4.1-1.84,89.71,89.71,0,0,1-20.32-8.13,33,33,0,0,1-8.3-6.28c-6.58-6.76-8.27-14.78-5.68-21.82,3.43-9.34,11.57-12.12,19.4-16.27,14.77-8,26.34-18,34.43-29.88a67.09,67.09,0,0,0,6-10.57c.79-2.15.78-3.33.25-4.41a7.43,7.43,0,0,0-2.21-2.22c-2.53-1.68-5.12-3.35-6.88-4.5-3.27-2.14-5.87-3.82-7.53-5-6.27-4.38-10.65-9-13.4-14.24a28.41,28.41,0,0,1-1.37-23.59c4.13-10.92,14.47-17.7,27-17.7a36.32,36.32,0,0,1,7.84.83c.69.15,1.37.3,2,.48-.11-7.43.06-15.36.72-23.12,2.36-27.26,11.92-41.59,21.88-53A87,87,0,0,1,173.12,77c15.13-8.63,32.19-13,50.88-13s35.83,4.38,50.94,13a87,87,0,0,1,22.24,17.9c10,11.4,19.52,25.7,21.88,53q.93,11.53.71,23.12c.67-.18,1.36-.33,2.05-.48a37,37,0,0,1,7.85-.83c12.5,0,22.82,6.78,27,17.7a28.42,28.42,0,0,1-1.4,23.56c-2.74,5.2-7.13,9.86-13.39,14.25-1.67,1.18-4.26,2.86-7.53,5-1.84,1.18-4.54,2.94-7.17,4.68a7,7,0,0,0-1.95,2c-.5,1.05-.54,2.19.17,4.21a69.31,69.31,0,0,0,6.08,10.79c8.27,12.1,20.19,22.32,35.46,30.41,1.48.77,3,1.5,4.44,2.26a28,28,0,0,1,2.49,1.3c4.9,2.72,9.2,6,11.45,12.15C387.82,304.92,386.27,312.7,380.09,319.31Zm-16.72-18.46c-50.31-24.32-58.33-61.92-58.69-64.75-.43-3.38-.92-6,2.81-9.47s19.54-13.19,24-16.28c7.33-5.11,10.53-10.22,8.16-16.5-1.66-4.31-5.69-6-10-6a17.88,17.88,0,0,0-4,.45c-8,1.74-15.84,5.77-20.35,6.85a7.14,7.14,0,0,1-1.66.23c-2.41,0-3.28-1.07-3.09-4,.56-8.78,1.76-25.93.37-41.94-1.88-22-9-32.95-17.43-42.6-4.05-4.62-23.13-24.65-59.54-24.65S168.53,102.36,164.48,107c-8.44,9.65-15.53,20.57-17.43,42.6-1.39,16-.14,33.15.37,41.94.17,2.75-.68,4-3.09,4a7.14,7.14,0,0,1-1.66-.23c-4.51-1.09-12.31-5.11-20.34-6.85a17.91,17.91,0,0,0-4-.45c-4.25,0-8.3,1.63-10,6-2.37,6.28.85,11.38,8.17,16.5,4.42,3.09,20.37,13,24,16.28s3.23,6.09,2.8,9.47C143,239,134.93,276.59,84.62,301c-2.94,1.42-8,4.45.88,9.33,13.88,7.62,23.11,6.8,30.3,11.43,6.09,3.92,2.5,12.39,6.92,15.45,5.46,3.76,21.59-.27,42.34,6.6,17.43,5.74,28.12,22,59,22s41.79-16.3,58.94-22c20.8-6.87,36.89-2.84,42.34-6.6,4.43-3.06.82-11.52,6.92-15.45,7.18-4.62,16.41-3.8,30.3-11.47C371.36,305.36,366.35,302.33,363.37,300.85Z"/></svg>