<svg id="Layer_1" data-name="Layer 1" xmlns="http://www.w3.org/2000/svg" viewBox="0 0 448 448"><defs><style>.cls-1{fill:#dfbda0;}</style></defs><path class="cls-1" d="M186.8,170.1,282,224.2l-95.2,54.1ZM448,48V400a48,48,0,0,1-48,48H48A48,48,0,0,1,0,400V48A48,48,0,0,1,48,0H400A48,48,0,0,1,448,48ZM406,224.3s0-59.6-7.6-88.2a45.64,45.64,0,0,0-32.2-32.4C337.9,96,224,96,224,96s-113.9,0-142.2,7.7a45.64,45.64,0,0,0-32.2,32.4C42,164.6,42,224.3,42,224.3s0,59.6,7.6,88.2a45,45,0,0,0,32.2,31.9C110.1,352,224,352,224,352s113.9,0,142.2-7.7a45,45,0,0,0,32.2-31.9c7.6-28.5,7.6-88.1,7.6-88.1Z"/></svg>